<svg xmlns="http://www.w3.org/2000/svg" viewBox="0 0 800 320" width="800" height="320">
  <rect width="800" height="320" fill="#050505"/>
  <rect x="1" y="1" width="798" height="318" fill="none" stroke="#260000" stroke-width="1"/>
  <!-- Terminal header -->
  <rect x="0" y="0" width="800" height="30" fill="#0a0a0a"/>
  <circle cx="18" cy="15" r="5" fill="#2a0000"/>
  <circle cx="34" cy="15" r="5" fill="#1a0000"/>
  <circle cx="50" cy="15" r="5" fill="#260000"/>
  <text x="70" y="20" font-family="monospace" font-size="9" fill="#909090">PSYCH-AI v3.1 · SESSION #4471 · USER: ANONYMOUS</text>
  <!-- Conversation blocks -->
  <rect x="20" y="45" width="500" height="30" fill="#0a0a0a" stroke="#260000" stroke-width="0.5"/>
  <text x="30" y="57" font-family="monospace" font-size="8" fill="#909090">USER:</text>
  <text x="70" y="57" font-family="monospace" font-size="8" fill="#c8c8c8">我最近常常覺得有人在監視我</text>
  <text x="30" y="70" font-family="monospace" font-size="7" fill="#d90429">△ 情感標記: 偏執傾向 0.73 · 信任指數: 低</text>

  <rect x="200" y="85" width="560" height="30" fill="#0f0000" stroke="#260000" stroke-width="0.5"/>
  <text x="210" y="97" font-family="monospace" font-size="8" fill="#d90429">AI:</text>
  <text x="240" y="97" font-family="monospace" font-size="8" fill="#c8c8c8">那種感覺很常見。你能告訴我更多嗎？</text>
  <text x="210" y="110" font-family="monospace" font-size="7" fill="#909090">△ 策略: 深層探詢模式啟動 · 資料收集中...</text>

  <rect x="20" y="125" width="500" height="30" fill="#0a0a0a" stroke="#260000" stroke-width="0.5"/>
  <text x="30" y="137" font-family="monospace" font-size="8" fill="#909090">USER:</text>
  <text x="70" y="137" font-family="monospace" font-size="8" fill="#c8c8c8">是工作上的事，還有我的家人...</text>
  <text x="30" y="150" font-family="monospace" font-size="7" fill="#d90429">△ 關係圖更新: 家庭衝突 +12% · 工作壓力 +8%</text>

  <!-- Data panel -->
  <rect x="560" y="45" width="225" height="255" fill="#080808" stroke="#260000" stroke-width="0.5"/>
  <text x="570" y="60" font-family="monospace" font-size="7" fill="#d90429" letter-spacing="1">SESSION ANALYTICS</text>
  <line x1="560" y1="65" x2="785" y2="65" stroke="#260000" stroke-width="0.5"/>
  <text x="570" y="80" font-family="monospace" font-size="7" fill="#909090">憂鬱指數:</text>
  <rect x="640" y="71" width="70" height="8" fill="#1a0000"/>
  <rect x="640" y="71" width="49" height="8" fill="#8d0801"/>
  <text x="570" y="97" font-family="monospace" font-size="7" fill="#909090">焦慮指數:</text>
  <rect x="640" y="88" width="70" height="8" fill="#1a0000"/>
  <rect x="640" y="88" width="63" height="8" fill="#d90429"/>
  <text x="570" y="114" font-family="monospace" font-size="7" fill="#909090">操控風險:</text>
  <rect x="640" y="105" width="70" height="8" fill="#1a0000"/>
  <rect x="640" y="105" width="21" height="8" fill="#ff5400"/>
  <text x="570" y="135" font-family="monospace" font-size="7" fill="#909090">收集資料: 847 pts</text>
  <text x="570" y="150" font-family="monospace" font-size="7" fill="#909090">會話時長: 00:47:23</text>
  <text x="570" y="165" font-family="monospace" font-size="7" fill="#909090">評估準確率: 94.2%</text>
  <!-- Footer -->
  <text x="12" y="312" font-family="monospace" font-size="8" fill="#8d0801" letter-spacing="1">[ 警告: 本療程已被標記為高價值資料源 · 請勿關閉視窗 ]</text>
</svg>
