<svg xmlns="http://www.w3.org/2000/svg" viewBox="0 0 800 320" width="800" height="320">
  <rect width="800" height="320" fill="#050505"/>
  <rect x="1" y="1" width="798" height="318" fill="none" stroke="#260000" stroke-width="1"/>
  <!-- Grid lines -->
  <line x1="0" y1="80" x2="800" y2="80" stroke="#1a0000" stroke-width="0.5"/>
  <line x1="0" y1="160" x2="800" y2="160" stroke="#1a0000" stroke-width="0.5"/>
  <line x1="0" y1="240" x2="800" y2="240" stroke="#1a0000" stroke-width="0.5"/>
  <line x1="200" y1="0" x2="200" y2="320" stroke="#1a0000" stroke-width="0.5"/>
  <line x1="400" y1="0" x2="400" y2="320" stroke="#1a0000" stroke-width="0.5"/>
  <line x1="600" y1="0" x2="600" y2="320" stroke="#1a0000" stroke-width="0.5"/>
  <!-- Neural network nodes -->
  <circle cx="400" cy="160" r="22" fill="none" stroke="#d90429" stroke-width="1.5"/>
  <circle cx="400" cy="160" r="6" fill="#d90429"/>
  <circle cx="220" cy="80" r="12" fill="none" stroke="#8d0801" stroke-width="1"/>
  <circle cx="220" cy="80" r="3" fill="#8d0801"/>
  <circle cx="580" cy="80" r="12" fill="none" stroke="#8d0801" stroke-width="1"/>
  <circle cx="580" cy="80" r="3" fill="#8d0801"/>
  <circle cx="180" cy="240" r="12" fill="none" stroke="#8d0801" stroke-width="1"/>
  <circle cx="180" cy="240" r="3" fill="#8d0801"/>
  <circle cx="620" cy="240" r="12" fill="none" stroke="#8d0801" stroke-width="1"/>
  <circle cx="620" cy="240" r="3" fill="#8d0801"/>
  <circle cx="100" cy="160" r="8" fill="none" stroke="#260000" stroke-width="1"/>
  <circle cx="700" cy="160" r="8" fill="none" stroke="#260000" stroke-width="1"/>
  <!-- Connections -->
  <line x1="400" y1="160" x2="220" y2="80" stroke="#d90429" stroke-width="0.8" opacity="0.6"/>
  <line x1="400" y1="160" x2="580" y2="80" stroke="#d90429" stroke-width="0.8" opacity="0.6"/>
  <line x1="400" y1="160" x2="180" y2="240" stroke="#d90429" stroke-width="0.8" opacity="0.6"/>
  <line x1="400" y1="160" x2="620" y2="240" stroke="#d90429" stroke-width="0.8" opacity="0.6"/>
  <line x1="220" y1="80" x2="100" y2="160" stroke="#8d0801" stroke-width="0.5" opacity="0.4"/>
  <line x1="580" y1="80" x2="700" y2="160" stroke="#8d0801" stroke-width="0.5" opacity="0.4"/>
  <line x1="180" y1="240" x2="100" y2="160" stroke="#8d0801" stroke-width="0.5" opacity="0.4"/>
  <line x1="620" y1="240" x2="700" y2="160" stroke="#8d0801" stroke-width="0.5" opacity="0.4"/>
  <!-- Labels -->
  <text x="12" y="20" font-family="monospace" font-size="9" fill="#d90429" letter-spacing="2">NEURAL LINK SCHEMATIC · 憶橋科技 v4.7</text>
  <text x="12" y="310" font-family="monospace" font-size="8" fill="#8d0801" letter-spacing="1">[ MEMORY PATTERN DETECTED · EMOTIONAL INDEX: A+ · CLASSIFICATION: RESTRICTED ]</text>
  <text x="364" y="155" font-family="monospace" font-size="7" fill="#d90429">CORE</text>
  <text x="196" y="78" font-family="monospace" font-size="6" fill="#909090">SYN-A</text>
  <text x="554" y="78" font-family="monospace" font-size="6" fill="#909090">SYN-B</text>
  <text x="154" y="238" font-family="monospace" font-size="6" fill="#909090">MEM-C</text>
  <text x="594" y="238" font-family="monospace" font-size="6" fill="#909090">MEM-D</text>
  <!-- Scanline effect -->
  <rect width="800" height="320" fill="url(#scan)" opacity="0.04"/>
  <defs>
    <pattern id="scan" patternUnits="userSpaceOnUse" width="800" height="3">
      <rect width="800" height="1" fill="white" y="0"/>
    </pattern>
  </defs>
</svg>
